<?xml version="1.0" encoding="iso-8859-1"?>
<!-- Generator: Adobe Illustrator 18.1.1, SVG Export Plug-In . SVG Version: 6.00 Build 0)  -->
<svg version="1.1" id="Capa_1" xmlns="http://www.w3.org/2000/svg" xmlns:xlink="http://www.w3.org/1999/xlink" x="0px" y="0px"
	 viewBox="0 0 611.999 611.999" style="enable-background:new 0 0 611.999 611.999;" xml:space="preserve">
<path d="M119.782,159.31l-50.05-50.021l39.404-39.426l50.05,50.021L119.782,159.31z M542.283,109.268L502.604,69.87l-50.005,50.005
	l39.372,39.423L542.283,109.268z M69.717,502.426l39.397,39.704l50.056-50.286l-39.422-39.398L69.717,502.426z M333.795,0h-55.87
	v82.441h55.87V0z M452.319,492.124l49.979,50.286l39.703-39.677l-50.312-50.031L452.319,492.124z M277.924,611.999h55.87v-82.441
	h-55.87V611.999z M501.483,273.334v-51.179H110.262v51.179H65.943v65.331h44.319v51.179h391.221v-51.179h44.573v-65.331H501.483z"/>
<g>
</g>
<g>
</g>
<g>
</g>
<g>
</g>
<g>
</g>
<g>
</g>
<g>
</g>
<g>
</g>
<g>
</g>
<g>
</g>
<g>
</g>
<g>
</g>
<g>
</g>
<g>
</g>
<g>
</g>
</svg>
