<?xml version="1.0" encoding="iso-8859-1"?>
<!-- Generator: Adobe Illustrator 18.1.1, SVG Export Plug-In . SVG Version: 6.00 Build 0)  -->
<svg version="1.1" id="Capa_1" xmlns="http://www.w3.org/2000/svg" xmlns:xlink="http://www.w3.org/1999/xlink" x="0px" y="0px"
	 viewBox="0 0 525.153 525.153" style="enable-background:new 0 0 525.153 525.153;" xml:space="preserve">
<g>
	<path d="M472.637,118.116H367.629V65.644l-52.515-52.471H210.061l-52.537,52.471v52.471H52.515
		c-29.168,0-52.253,23.413-52.253,52.559L0,459.508c0,29.146,23.369,52.471,52.515,52.471h420.122
		c29.146,0,52.515-23.326,52.515-52.471V170.696C525.153,141.55,501.783,118.116,472.637,118.116z M210.061,65.644h105.031v52.471
		H210.061V65.644z M223.168,420.1l-91.88-91.88l37.001-37.001l54.878,54.878l136.036-135.993l37.001,37.001L223.168,420.1z"/>
</g>
<g>
</g>
<g>
</g>
<g>
</g>
<g>
</g>
<g>
</g>
<g>
</g>
<g>
</g>
<g>
</g>
<g>
</g>
<g>
</g>
<g>
</g>
<g>
</g>
<g>
</g>
<g>
</g>
<g>
</g>
</svg>
