<?xml version="1.0" encoding="iso-8859-1"?>
<!-- Generator: Adobe Illustrator 18.1.1, SVG Export Plug-In . SVG Version: 6.00 Build 0)  -->
<svg version="1.1" id="Capa_1" xmlns="http://www.w3.org/2000/svg" xmlns:xlink="http://www.w3.org/1999/xlink" x="0px" y="0px"
	 viewBox="0 0 525.153 525.153" style="enable-background:new 0 0 525.153 525.153;" xml:space="preserve">
<g>
	<path d="M92.077,354.675c0,94.243,76.213,170.478,170.5,170.478s170.5-76.235,170.5-170.478v-97.438H92.077V354.675z
		 M362.924,71.377l51.181-51.18L394.105,0l-56.038,56.279c-22.888-11.488-48.205-18.271-75.491-18.271s-52.603,6.783-75.25,18.271
		L131.047,0l-20,20.196l51.18,51.18c-42.384,30.984-70.152,80.589-70.152,137.152v24.332h340.999v-24.332
		C433.076,151.966,405.308,102.361,362.924,71.377z M189.514,184.154c-13.391,0-24.354-10.963-24.354-24.332
		c0-13.435,10.963-24.376,24.354-24.376c13.391,0,24.354,10.941,24.354,24.376C213.868,173.191,202.884,184.154,189.514,184.154z
		 M335.638,184.154c-13.391,0-24.354-10.963-24.354-24.332c0-13.435,10.963-24.376,24.354-24.376
		c13.391,0,24.354,10.941,24.354,24.376C360.014,173.191,349.03,184.154,335.638,184.154z"/>
</g>
<g>
</g>
<g>
</g>
<g>
</g>
<g>
</g>
<g>
</g>
<g>
</g>
<g>
</g>
<g>
</g>
<g>
</g>
<g>
</g>
<g>
</g>
<g>
</g>
<g>
</g>
<g>
</g>
<g>
</g>
</svg>
