<?xml version="1.0" encoding="iso-8859-1"?>
<!-- Generator: Adobe Illustrator 18.1.1, SVG Export Plug-In . SVG Version: 6.00 Build 0)  -->
<svg version="1.1" id="Capa_1" xmlns="http://www.w3.org/2000/svg" xmlns:xlink="http://www.w3.org/1999/xlink" x="0px" y="0px"
	 viewBox="0 0 525.153 525.153" style="enable-background:new 0 0 525.153 525.153;" xml:space="preserve">
<g>
	<path d="M95.468,167.108C42.712,167.108,0,209.82,0,262.576s42.712,95.468,95.468,95.468s95.49-42.712,95.49-95.468
		S148.224,167.108,95.468,167.108z M381.939,119.341c-79.014,0-143.257,64.222-143.257,143.235s64.244,143.235,143.257,143.235
		s143.213-64.222,143.213-143.235S460.953,119.341,381.939,119.341z M381.939,358.045c-52.756,0-95.468-42.712-95.468-95.468
		s42.712-95.468,95.468-95.468s95.468,42.712,95.468,95.468S434.695,358.045,381.939,358.045z"/>
</g>
<g>
</g>
<g>
</g>
<g>
</g>
<g>
</g>
<g>
</g>
<g>
</g>
<g>
</g>
<g>
</g>
<g>
</g>
<g>
</g>
<g>
</g>
<g>
</g>
<g>
</g>
<g>
</g>
<g>
</g>
</svg>
