<?xml version="1.0" encoding="iso-8859-1"?>
<!-- Generator: Adobe Illustrator 18.1.1, SVG Export Plug-In . SVG Version: 6.00 Build 0)  -->
<svg version="1.1" id="Capa_1" xmlns="http://www.w3.org/2000/svg" xmlns:xlink="http://www.w3.org/1999/xlink" x="0px" y="0px"
	 viewBox="0 0 525.153 525.153" style="enable-background:new 0 0 525.153 525.153;" xml:space="preserve">
<g>
	<path d="M262.576,145.817c-64.441,0-116.693,52.253-116.693,116.759s52.253,116.759,116.693,116.759S379.27,327.082,379.27,262.576
		S327.017,145.817,262.576,145.817z M58.379,350.145H0v116.628c0,32.144,26.236,58.379,58.379,58.379h116.693v-58.379H58.379
		V350.145z M58.379,58.379h116.693V0H58.379C26.236,0,0,26.236,0,58.379v116.628h58.379V58.379z M466.773,0H350.08v58.379h116.693
		v116.628h58.379V58.379C525.153,26.236,498.917,0,466.773,0z M466.773,466.773H350.08v58.379h116.693
		c32.144,0,58.379-26.236,58.379-58.379V350.145h-58.379V466.773z"/>
</g>
<g>
</g>
<g>
</g>
<g>
</g>
<g>
</g>
<g>
</g>
<g>
</g>
<g>
</g>
<g>
</g>
<g>
</g>
<g>
</g>
<g>
</g>
<g>
</g>
<g>
</g>
<g>
</g>
<g>
</g>
</svg>
