<?xml version="1.0" encoding="iso-8859-1"?>
<!-- Generator: Adobe Illustrator 18.1.1, SVG Export Plug-In . SVG Version: 6.00 Build 0)  -->
<svg version="1.1" id="Capa_1" xmlns="http://www.w3.org/2000/svg" xmlns:xlink="http://www.w3.org/1999/xlink" x="0px" y="0px"
	 viewBox="0 0 525.196 525.196" style="enable-background:new 0 0 525.196 525.196;" xml:space="preserve">
<g>
	<path d="M0,168.913v36.717l65.6-21.859v209.886h43.741V131.299h-5.47L0,168.913z M519.901,314.293
		c-3.02-6.127-7.637-11.597-13.741-16.192c-6.127-4.573-13.348-8.512-22.078-11.597c-8.753-3.063-18.599-5.886-29.54-8.271
		c-7.658-1.532-13.982-3.282-19.015-5.033c-5.033-1.751-8.971-3.501-12.013-5.47c-3.063-1.969-5.011-4.157-6.127-6.564
		c-1.094-2.407-1.751-5.252-1.751-8.534c0-3.063,0.656-6.105,1.969-8.949c1.335-2.823,3.282-5.47,5.93-7.44
		c2.626-2.188,5.908-3.939,9.847-5.23c3.939-1.313,8.753-1.947,13.982-1.947c5.47,0,10.262,0.875,14.442,2.385
		c4.157,1.532,7.658,3.72,10.481,6.346c2.866,2.626,4.836,5.667,6.367,9.168c1.291,3.501,2.166,7.002,2.166,10.722h42.625
		c0-8.512-1.75-16.389-5.23-23.829c-3.501-7.418-8.534-13.763-15.098-19.234c-6.564-5.47-14.442-9.628-23.829-12.888
		c-9.387-3.282-20.109-4.836-31.903-4.836c-11.138,0-21.422,1.532-30.393,4.595c-8.971,3.063-16.849,7.221-23.194,12.472
		c-6.324,5.252-11.138,11.356-14.639,18.358c-3.501,7.002-5.033,14.223-5.033,22.078c0,7.877,1.751,15.076,5.033,20.984
		c3.282,6.127,7.877,11.356,14.004,15.973c5.908,4.551,13.107,8.293,21.422,11.575c8.315,3.085,17.702,5.667,27.789,7.877
		c8.534,1.751,15.492,3.72,20.765,5.711c5.252,1.969,9.387,4.136,12.472,6.324c2.845,2.188,4.814,4.836,5.886,7.44
		c1.116,2.648,1.532,5.47,1.532,8.534c0,7.002-2.845,12.472-8.753,16.827c-5.908,4.376-14.442,6.346-25.579,6.346
		c-4.814,0-9.387-0.46-13.982-1.729c-4.595-1.116-8.731-2.866-12.232-5.252c-3.72-2.407-6.586-5.689-8.971-9.628
		c-2.407-3.961-3.72-8.971-3.939-14.639h-41.334c0,7.877,1.75,15.514,5.251,22.954c3.501,7.418,8.534,14.223,15.273,20.328
		c6.805,5.908,15.12,10.722,25.142,14.42c10.087,3.72,21.444,5.47,34.551,5.47c11.597,0,22.078-1.313,31.487-4.136
		c9.409-2.845,17.483-6.783,24.288-11.838c6.761-5.011,11.794-11.138,15.492-18.118c3.72-7.002,5.47-14.66,5.47-23.172
		C524.715,327.859,523.183,320.441,519.901,314.293z M302.16,154.253c-7.418-8.731-16.389-15.295-26.892-19.234
		c-10.284-3.939-22.078-5.908-34.769-5.908c-12.691,0-24.266,1.969-34.769,5.908c-10.481,3.939-19.453,10.284-26.892,19.234
		c-7.44,8.971-13.129,20.35-17.264,34.791c-3.939,14.201-6.127,31.684-6.127,52.253v41.968c0,20.568,1.969,38.03,6.127,52.253
		c4.136,14.442,9.825,25.995,17.483,34.988c7.44,8.971,16.411,15.536,26.892,19.474c10.503,3.939,22.1,6.105,34.769,6.105
		c12.888,0,24.485-1.969,34.748-6.105c10.503-3.917,19.256-10.503,26.695-19.474c7.418-8.971,13.107-20.547,17.046-34.988
		c3.917-14.201,6.127-31.684,6.127-52.253v-41.968c0-20.568-1.969-38.052-6.127-52.253
		C315.267,174.602,309.577,163.005,302.16,154.253z M282.051,289.173c0,13.107-0.897,24.245-2.648,33.435
		c-1.729,9.19-4.354,16.608-7.855,22.297c-3.479,5.667-7.855,9.868-12.888,12.472c-5.011,2.626-11.16,3.917-17.921,3.917
		c-6.564,0-12.691-1.291-17.943-3.917c-5.252-2.604-9.606-6.805-13.129-12.472c-3.501-5.689-6.346-13.107-8.293-22.297
		c-1.969-9.168-2.845-20.328-2.845-33.435v-54.66c0-13.129,0.875-24.266,2.845-33.238c1.969-8.971,4.573-16.192,8.293-21.881
		c3.501-5.47,7.877-9.387,13.129-12.013c5.252-2.407,11.16-3.698,17.724-3.698c6.783,0,12.691,1.291,17.702,3.698
		c5.252,2.407,9.628,6.346,13.129,12.013c3.501,5.47,6.346,12.691,8.074,21.663c1.751,8.971,2.866,20.109,2.866,33.216v54.9H282.051
		z"/>
</g>
<g>
</g>
<g>
</g>
<g>
</g>
<g>
</g>
<g>
</g>
<g>
</g>
<g>
</g>
<g>
</g>
<g>
</g>
<g>
</g>
<g>
</g>
<g>
</g>
<g>
</g>
<g>
</g>
<g>
</g>
</svg>
