<?xml version="1.0" encoding="iso-8859-1"?>
<!-- Generator: Adobe Illustrator 18.1.1, SVG Export Plug-In . SVG Version: 6.00 Build 0)  -->
<svg version="1.1" id="Capa_1" xmlns="http://www.w3.org/2000/svg" xmlns:xlink="http://www.w3.org/1999/xlink" x="0px" y="0px"
	 viewBox="0 0 525.153 525.153" style="enable-background:new 0 0 525.153 525.153;" xml:space="preserve">
<g>
	<path d="M472.681,367.629h52.471V315.07h-52.471V367.629z M472.681,131.288v131.288h52.471V131.288H472.681z M210.105,52.471
		C93.98,52.471,0,146.539,0,262.576s93.98,210.105,210.105,210.105c116.037,0,210.017-94.068,210.017-210.105
		S326.12,52.471,210.105,52.471z M210.105,315.048c-28.927,0-52.559-23.632-52.559-52.471c0-28.84,23.632-52.471,52.559-52.471
		c28.84,0,52.471,23.632,52.471,52.471C262.576,291.416,238.944,315.048,210.105,315.048z"/>
</g>
<g>
</g>
<g>
</g>
<g>
</g>
<g>
</g>
<g>
</g>
<g>
</g>
<g>
</g>
<g>
</g>
<g>
</g>
<g>
</g>
<g>
</g>
<g>
</g>
<g>
</g>
<g>
</g>
<g>
</g>
</svg>
