<?xml version="1.0" encoding="iso-8859-1"?>
<!-- Generator: Adobe Illustrator 18.1.1, SVG Export Plug-In . SVG Version: 6.00 Build 0)  -->
<svg version="1.1" id="Capa_1" xmlns="http://www.w3.org/2000/svg" xmlns:xlink="http://www.w3.org/1999/xlink" x="0px" y="0px"
	 viewBox="0 0 525.153 525.153" style="enable-background:new 0 0 525.153 525.153;" xml:space="preserve">
<g>
	<path d="M408.569,327.947c7.352-18.14,11.531-38.095,11.531-58.817c0-86.891-70.589-157.546-157.524-157.546
		c-20.744,0-40.699,4.223-58.795,11.553l42.494,42.537c5.273-0.788,10.766-1.575,16.302-1.575
		c58.007,0,105.052,46.979,105.052,105.052c0,5.492-0.503,11.028-1.357,16.52L408.569,327.947z M262.576,59.047
		c116.081,0,210.061,94.024,210.061,210.105c0,35.426-9.19,68.795-24.945,98.204l38.577,38.577
		c24.726-39.934,38.883-86.65,38.883-136.78c0-144.964-117.656-262.576-262.576-262.576c-50.174,0-96.891,14.42-136.78,38.577
		L164.11,83.51C193.541,67.974,227.15,59.047,262.576,59.047z M33.347,19.682L0,53.029l55.141,55.141
		C20.744,152.808,0,208.475,0,269.152c0,97.109,52.8,181.681,131.026,227.107l26.236-45.426
		C94.812,414.334,52.515,346.874,52.515,269.152c0-46.257,14.945-88.751,40.13-123.17l37.592,37.811
		c-15.776,24.42-25.185,53.828-25.185,85.337c0,58.292,31.772,108.969,78.773,136.255l26.236-45.666
		c-31.247-18.402-52.515-51.728-52.515-90.589c0-17.089,4.486-32.822,11.553-47.023l41.487,41.487l-0.525,5.558
		c0,28.84,23.632,52.471,52.515,52.471l5.536-0.503l0.284,0.263l197.195,197.195l33.325-33.325L59.583,45.94L33.347,19.682z"/>
</g>
<g>
</g>
<g>
</g>
<g>
</g>
<g>
</g>
<g>
</g>
<g>
</g>
<g>
</g>
<g>
</g>
<g>
</g>
<g>
</g>
<g>
</g>
<g>
</g>
<g>
</g>
<g>
</g>
<g>
</g>
</svg>
