<?xml version="1.0" encoding="iso-8859-1"?>
<!-- Generator: Adobe Illustrator 18.1.1, SVG Export Plug-In . SVG Version: 6.00 Build 0)  -->
<svg version="1.1" id="Capa_1" xmlns="http://www.w3.org/2000/svg" xmlns:xlink="http://www.w3.org/1999/xlink" x="0px" y="0px"
	 viewBox="0 0 525.153 525.153" style="enable-background:new 0 0 525.153 525.153;" xml:space="preserve">
<g>
	<path d="M0,262.576c0,64.506,26.586,122.557,68.817,164.57L0,495.963h175.007V320.956l-65.294,65.294
		c-31.597-31.794-51.334-75.294-51.334-123.673c0-76.081,48.73-140.938,116.628-164.788V36.804C74.375,62.69,0,153.76,0,262.576z
		 M233.387,408.394h58.379v-58.248h-58.379V408.394z M525.153,29.19H350.145v175.007l65.294-65.294
		c31.597,31.794,51.334,75.294,51.334,123.673c0,76.081-48.73,140.938-116.628,164.788v60.983
		c100.632-25.886,175.007-116.956,175.007-225.772c0-64.506-26.586-122.557-68.817-164.57L525.153,29.19z M233.387,291.766h58.379
		V116.759h-58.379V291.766z"/>
</g>
<g>
</g>
<g>
</g>
<g>
</g>
<g>
</g>
<g>
</g>
<g>
</g>
<g>
</g>
<g>
</g>
<g>
</g>
<g>
</g>
<g>
</g>
<g>
</g>
<g>
</g>
<g>
</g>
<g>
</g>
</svg>
