<?xml version="1.0" encoding="iso-8859-1"?>
<!-- Generator: Adobe Illustrator 18.1.1, SVG Export Plug-In . SVG Version: 6.00 Build 0)  -->
<svg version="1.1" id="Capa_1" xmlns="http://www.w3.org/2000/svg" xmlns:xlink="http://www.w3.org/1999/xlink" x="0px" y="0px"
	 viewBox="0 0 525.153 525.153" style="enable-background:new 0 0 525.153 525.153;" xml:space="preserve">
<g>
	<path d="M487.145,482.834l-61.027-61.027L262.576,258.528l-92.427-92.624l-36.848-36.629L61.924,57.898L28.905,90.851
		l72.187,72.187c-66.169,81.508-61.224,201.44,14.595,277.499c40.437,40.502,93.652,60.743,146.89,60.743
		c46.498,0,92.689-15.317,130.588-46.192l70.064,70.064l33.019-32.975L487.145,482.834z M262.576,449.596
		c-41.509,0-80.698-16.039-110.085-45.666c-29.562-29.605-45.688-68.532-45.688-110.063c0-34.288,11.181-66.716,31.465-93.477
		l124.308,124.089V449.596z M262.576,73.434v118.903l188.202,188.464c35.557-76.804,21.772-170.521-41.509-233.868L262.576,0
		l-96.037,96.059l36.586,36.586L262.576,73.434z"/>
</g>
<g>
</g>
<g>
</g>
<g>
</g>
<g>
</g>
<g>
</g>
<g>
</g>
<g>
</g>
<g>
</g>
<g>
</g>
<g>
</g>
<g>
</g>
<g>
</g>
<g>
</g>
<g>
</g>
<g>
</g>
</svg>
