<?xml version="1.0" encoding="iso-8859-1"?>
<!-- Generator: Adobe Illustrator 18.1.1, SVG Export Plug-In . SVG Version: 6.00 Build 0)  -->
<svg version="1.1" id="Capa_1" xmlns="http://www.w3.org/2000/svg" xmlns:xlink="http://www.w3.org/1999/xlink" x="0px" y="0px"
	 viewBox="0 0 525.153 525.153" style="enable-background:new 0 0 525.153 525.153;" xml:space="preserve">
<g>
	<path d="M262.357,0C117.393,0,0,117.634,0,262.576c0,144.92,117.393,262.576,262.357,262.576
		c145.183,0,262.795-117.656,262.795-262.576C525.153,117.634,407.54,0,262.357,0z M262.576,472.637
		c-116.037,0-210.105-93.98-210.105-210.061S146.539,52.515,262.576,52.515s210.105,93.98,210.105,210.061
		S378.613,472.637,262.576,472.637z M354.456,236.341c21.838,0,39.408-17.614,39.408-39.408s-17.571-39.408-39.408-39.408
		c-21.75,0-39.408,17.614-39.408,39.408S332.706,236.341,354.456,236.341z M170.696,236.341c21.75,0,39.408-17.615,39.408-39.408
		s-17.658-39.408-39.408-39.408c-21.838,0-39.408,17.614-39.408,39.408S148.859,236.341,170.696,236.341z M262.576,406.993
		c61.158,0,113.214-38.314,134.198-91.88H128.378C149.362,368.679,201.418,406.993,262.576,406.993z"/>
</g>
<g>
</g>
<g>
</g>
<g>
</g>
<g>
</g>
<g>
</g>
<g>
</g>
<g>
</g>
<g>
</g>
<g>
</g>
<g>
</g>
<g>
</g>
<g>
</g>
<g>
</g>
<g>
</g>
<g>
</g>
</svg>
