<?xml version="1.0" encoding="iso-8859-1"?>
<!-- Generator: Adobe Illustrator 18.1.1, SVG Export Plug-In . SVG Version: 6.00 Build 0)  -->
<svg version="1.1" id="Capa_1" xmlns="http://www.w3.org/2000/svg" xmlns:xlink="http://www.w3.org/1999/xlink" x="0px" y="0px"
	 viewBox="0 0 525.174 525.174" style="enable-background:new 0 0 525.174 525.174;" xml:space="preserve">
<g>
	<path d="M413.082,262.587l104.199-104.243c10.219-10.219,10.219-26.695,0-36.936L403.629,7.779
		c-10.219-10.219-26.717-10.219-36.936,0L262.494,111.978L158.208,7.779c-5.23-4.989-11.794-7.593-18.555-7.593
		c-6.586,0-13.37,2.626-18.358,7.615L7.686,121.431c-10.219,10.219-10.219,26.695,0,36.936l104.199,104.221L7.664,366.83
		c-10.219,10.24-10.219,26.695,0,36.936l113.608,113.63c10.24,10.219,26.695,10.219,36.936,0l104.287-104.243l104.199,104.243
		c5.208,5.252,11.772,7.615,18.577,7.615c6.849,0,13.348-2.669,18.643-7.615l113.63-113.63c10.175-10.24,10.175-26.695,0-36.936
		L413.082,262.587z M263.019,183.486c14.376,0,26.17,11.794,26.17,26.214c0,14.398-11.794,26.192-26.17,26.192
		c-14.398,0-26.192-11.794-26.192-26.192C236.805,195.28,248.6,183.486,263.019,183.486z M139.652,234.842L44.6,140.03
		l95.053-95.053l94.79,94.812L139.652,234.842z M210.635,288.254c-14.376,0-26.17-11.794-26.17-26.192s11.794-26.17,26.17-26.17
		c14.398,0,26.17,11.794,26.17,26.17C236.806,276.438,225.033,288.254,210.635,288.254z M263.019,340.616
		c-14.398,0-26.192-11.794-26.192-26.192c0-14.398,11.794-26.17,26.192-26.17c14.376,0,26.17,11.794,26.17,26.17
		C289.189,328.8,277.395,340.616,263.019,340.616z M315.36,235.892c14.398,0,26.17,11.794,26.17,26.17
		c0,14.376-11.772,26.192-26.17,26.192c-14.376,0-26.17-11.794-26.17-26.192S300.984,235.892,315.36,235.892z M385.052,480.46
		l-95.14-94.79l95.14-95.096l94.768,94.812L385.052,480.46z"/>
</g>
<g>
</g>
<g>
</g>
<g>
</g>
<g>
</g>
<g>
</g>
<g>
</g>
<g>
</g>
<g>
</g>
<g>
</g>
<g>
</g>
<g>
</g>
<g>
</g>
<g>
</g>
<g>
</g>
<g>
</g>
</svg>
