<?xml version="1.0" encoding="iso-8859-1"?>
<!-- Generator: Adobe Illustrator 18.1.1, SVG Export Plug-In . SVG Version: 6.00 Build 0)  -->
<svg version="1.1" id="Capa_1" xmlns="http://www.w3.org/2000/svg" xmlns:xlink="http://www.w3.org/1999/xlink" x="0px" y="0px"
	 viewBox="0 0 525.153 525.153" style="enable-background:new 0 0 525.153 525.153;" xml:space="preserve">
<g>
	<path d="M60.874,419.291l33.632,33.654l42.756-42.953l-33.675-33.654L60.874,419.291z M238.682,512.615h47.789V442.2h-47.789
		V512.615z M71.618,227.369H0v47.745h71.618V227.369z M334.194,127.349V12.538H190.959v114.811
		c-42.734,24.813-71.596,70.896-71.596,123.892c0,79.014,64.2,143.213,143.213,143.213s143.213-64.2,143.213-143.213
		C405.79,198.245,376.928,152.163,334.194,127.349z M453.535,227.369v47.745h71.618v-47.745H453.535z M387.672,410.232
		l42.691,42.953l33.675-33.654l-42.953-42.734L387.672,410.232z"/>
</g>
<g>
</g>
<g>
</g>
<g>
</g>
<g>
</g>
<g>
</g>
<g>
</g>
<g>
</g>
<g>
</g>
<g>
</g>
<g>
</g>
<g>
</g>
<g>
</g>
<g>
</g>
<g>
</g>
<g>
</g>
</svg>
