<?xml version="1.0" encoding="iso-8859-1"?>
<!-- Generator: Adobe Illustrator 18.1.1, SVG Export Plug-In . SVG Version: 6.00 Build 0)  -->
<svg version="1.1" id="Capa_1" xmlns="http://www.w3.org/2000/svg" xmlns:xlink="http://www.w3.org/1999/xlink" x="0px" y="0px"
	 viewBox="0 0 525.159 525.159" style="enable-background:new 0 0 525.159 525.159;" xml:space="preserve">
<g>
	<path d="M31.079,448.658l33.675,14.07V235.687L3.639,383.036C-6.667,408.681,5.674,438.09,31.079,448.658z M521.374,355.619
		L396.65,54.641c-7.79-18.84-26.17-30.415-45.469-30.918c-6.564,0-13.304,1.007-19.868,3.742L146,104.158
		c-18.862,7.834-30.459,25.908-30.962,45.294c-0.241,6.761,1.007,13.566,3.807,20.087l124.724,300.978
		c7.746,19.081,26.345,30.678,46.038,30.918c6.477,0,13.041-1.247,19.299-3.764L493.979,421
		C519.602,410.41,531.943,381.023,521.374,355.619z M165.583,174.594c-13.829,0-25.12-11.313-25.12-25.142
		c0-13.829,11.313-25.142,25.12-25.142s25.164,11.291,25.164,25.142C190.747,163.26,179.412,174.594,165.583,174.594z
		 M115.322,451.153c0,27.658,22.603,50.283,50.283,50.283h36.476l-86.76-209.689V451.153z"/>
</g>
<g>
</g>
<g>
</g>
<g>
</g>
<g>
</g>
<g>
</g>
<g>
</g>
<g>
</g>
<g>
</g>
<g>
</g>
<g>
</g>
<g>
</g>
<g>
</g>
<g>
</g>
<g>
</g>
<g>
</g>
</svg>
