<?xml version="1.0" encoding="iso-8859-1"?>
<!-- Generator: Adobe Illustrator 18.1.1, SVG Export Plug-In . SVG Version: 6.00 Build 0)  -->
<svg version="1.1" id="Capa_1" xmlns="http://www.w3.org/2000/svg" xmlns:xlink="http://www.w3.org/1999/xlink" x="0px" y="0px"
	 viewBox="0 0 525.153 525.153" style="enable-background:new 0 0 525.153 525.153;" xml:space="preserve">
<g>
	<path d="M446.336,157.524H78.817C35.207,157.524,0,192.753,0,236.34v157.524h105.052v105.052H420.1V393.864h105.052V236.341
		C525.153,192.753,489.945,157.524,446.336,157.524z M367.629,446.336H157.524V315.048h210.105V446.336z M446.336,262.576
		c-14.42,0-26.236-11.816-26.236-26.236c0-14.42,11.816-26.236,26.236-26.236c14.507,0,26.323,11.816,26.323,26.236
		C472.659,250.76,460.865,262.576,446.336,262.576z M420.1,26.236H105.052v105.052H420.1V26.236z"/>
</g>
<g>
</g>
<g>
</g>
<g>
</g>
<g>
</g>
<g>
</g>
<g>
</g>
<g>
</g>
<g>
</g>
<g>
</g>
<g>
</g>
<g>
</g>
<g>
</g>
<g>
</g>
<g>
</g>
<g>
</g>
</svg>
