<?xml version="1.0" encoding="iso-8859-1"?>
<!-- Generator: Adobe Illustrator 18.1.1, SVG Export Plug-In . SVG Version: 6.00 Build 0)  -->
<svg version="1.1" id="Capa_1" xmlns="http://www.w3.org/2000/svg" xmlns:xlink="http://www.w3.org/1999/xlink" x="0px" y="0px"
	 viewBox="0 0 525.153 525.153" style="enable-background:new 0 0 525.153 525.153;" xml:space="preserve">
<g>
	<path d="M437.627,0H87.525C59.758,0,37.505,22.516,37.505,50.021v350.102c0,27.505,22.253,49.999,50.021,49.999h100.02
		l75.031,75.031l75.009-75.031h100.042c27.505,0,50.021-22.494,50.021-49.999V50.021C487.648,22.516,465.132,0,437.627,0z
		 M287.587,400.122h-50.021v-50.021h50.021V400.122z M339.336,206.319l-22.494,22.997c-18.008,18.249-29.255,33.26-29.255,70.764
		h-50.021v-12.494c0-27.505,11.247-52.515,29.255-70.764l31.006-31.509c9.234-9.015,14.77-21.487,14.77-35.251
		c0-27.505-22.538-50.021-50.021-50.021c-27.505,0-50.021,22.516-50.021,50.021h-49.999c0-55.25,44.769-100.02,100.02-100.02
		s100.02,44.769,100.02,100.02C362.596,172.053,353.603,192.053,339.336,206.319z"/>
</g>
<g>
</g>
<g>
</g>
<g>
</g>
<g>
</g>
<g>
</g>
<g>
</g>
<g>
</g>
<g>
</g>
<g>
</g>
<g>
</g>
<g>
</g>
<g>
</g>
<g>
</g>
<g>
</g>
<g>
</g>
</svg>
