<?xml version="1.0" encoding="iso-8859-1"?>
<!-- Generator: Adobe Illustrator 18.1.1, SVG Export Plug-In . SVG Version: 6.00 Build 0)  -->
<svg version="1.1" id="Capa_1" xmlns="http://www.w3.org/2000/svg" xmlns:xlink="http://www.w3.org/1999/xlink" x="0px" y="0px"
	 viewBox="0 0 525.153 525.153" style="enable-background:new 0 0 525.153 525.153;" xml:space="preserve">
<g>
	<path d="M43.555,128.772c-18.315,7.024-31.05,25.536-31.05,46.279V475.11c0,27.527,22.297,50.043,49.977,50.043H462.67
		c27.702,0,49.977-22.516,49.977-50.021V175.051c0-27.767-22.297-50.021-49.977-50.021H170.073l206.604-83.521L359.653,0
		L43.555,128.772z M137.557,475.132c-41.509,0-75.075-33.5-75.075-75.009s33.544-75.031,75.075-75.031
		c41.487,0,75.031,33.5,75.031,75.031S179.066,475.132,137.557,475.132z M462.692,275.071h-50.065V225.05h-49.977v50.021H62.482
		v-100.02H462.67v100.02H462.692z"/>
</g>
<g>
</g>
<g>
</g>
<g>
</g>
<g>
</g>
<g>
</g>
<g>
</g>
<g>
</g>
<g>
</g>
<g>
</g>
<g>
</g>
<g>
</g>
<g>
</g>
<g>
</g>
<g>
</g>
<g>
</g>
</svg>
