<?xml version="1.0" encoding="iso-8859-1"?>
<!-- Generator: Adobe Illustrator 18.1.1, SVG Export Plug-In . SVG Version: 6.00 Build 0)  -->
<svg version="1.1" id="Capa_1" xmlns="http://www.w3.org/2000/svg" xmlns:xlink="http://www.w3.org/1999/xlink" x="0px" y="0px"
	 viewBox="0 0 525.153 525.153" style="enable-background:new 0 0 525.153 525.153;" xml:space="preserve">
<g>
	<path d="M218.814,437.627H109.407v43.763h109.407v43.763l65.644-65.644l-65.644-65.644V437.627z M306.339,437.627v43.763h109.407
		v-43.763H306.339z M262.576,175.051c24.069,0,43.763-19.693,43.763-43.763s-19.693-43.763-43.763-43.763
		s-43.544,19.693-43.544,43.763S238.507,175.051,262.576,175.051z M371.983,0H153.169c-24.069,0-43.763,19.693-43.763,43.763
		v306.339c0,24.069,19.693,43.763,43.763,43.763h218.814c24.07,0,43.763-19.693,43.763-43.763V43.763
		C415.746,19.693,396.053,0,371.983,0z M153.169,43.763h218.814v229.754c0-36.542-72.865-54.703-109.407-54.703
		s-109.407,18.162-109.407,54.703V43.763z"/>
</g>
<g>
</g>
<g>
</g>
<g>
</g>
<g>
</g>
<g>
</g>
<g>
</g>
<g>
</g>
<g>
</g>
<g>
</g>
<g>
</g>
<g>
</g>
<g>
</g>
<g>
</g>
<g>
</g>
<g>
</g>
</svg>
