<?xml version="1.0" encoding="iso-8859-1"?>
<!-- Generator: Adobe Illustrator 18.1.1, SVG Export Plug-In . SVG Version: 6.00 Build 0)  -->
<svg version="1.1" id="Capa_1" xmlns="http://www.w3.org/2000/svg" xmlns:xlink="http://www.w3.org/1999/xlink" x="0px" y="0px"
	 viewBox="0 0 525.153 525.153" style="enable-background:new 0 0 525.153 525.153;" xml:space="preserve">
<g>
	<path d="M230.279,293.024c-4.923-7.462-11.116-14.332-19.234-20.218c-7.746-5.908-17.396-10.831-28.818-14.901
		c9.278-4.354,17.702-9.278,24.77-15.558c7.155-6.171,13.041-12.669,17.702-19.825c4.726-7.133,8.424-14.289,10.525-22.035
		c2.516-7.462,3.479-15.186,3.479-22.625c0-17.133-2.801-32.297-8.709-45.36c-5.602-13.041-13.61-23.851-24.266-32.844
		c-10.175-8.709-22.625-15.558-37.198-19.89c-13.938-4.07-30.087-6.214-47.483-6.214c-17.024,0-32.888,2.516-47.198,7.44
		c-14.573,5.317-26.936,12.385-37.198,21.378c-10.24,9.081-18.665,19.606-24.266,32.012c-6.192,12.078-8.993,25.798-8.993,40.021
		h61.465c0-8.03,1.575-15.186,4.376-21.378c2.779-6.171,6.849-11.794,11.794-16.127c5.317-4.376,11.225-7.746,17.986-10.24
		c6.849-2.516,14.289-3.764,22.625-3.764c18.949,0,32.953,5.011,42.253,14.595c9.278,9.672,13.654,23.282,13.654,41.006
		c0,8.381-1.182,16.127-3.676,22.997c-2.494,6.783-6.564,12.691-11.794,17.593c-5.339,5.011-11.816,8.709-19.562,11.51
		c-7.812,2.801-17.089,4.048-27.636,4.048H78.51v48.73h36.629c10.525,0,19.912,1.269,28.249,3.392
		c8.402,2.494,15.558,5.908,21.444,10.919c5.886,4.923,10.547,11.138,13.632,18.949c3.107,7.44,4.945,16.717,4.945,26.958
		c0,19.256-5.514,33.829-16.433,44.091c-10.831,10.24-26.017,15.186-44.944,15.186c-8.993,0-17.396-1.247-24.857-4.048
		c-7.418-2.429-13.632-6.192-18.927-11.138c-5.23-5.011-9.278-10.525-12.1-17.374c-2.801-6.849-4.354-14.31-4.354-22.341H0
		c0,17.024,3.392,31.903,9.956,44.944c6.477,13.041,15.492,23.96,26.695,32.603c11.116,8.687,23.873,15.273,38.467,19.606
		c14.617,4.332,29.781,6.477,45.951,6.477c17.702,0,33.829-2.516,49.014-7.155c15.273-4.639,28.314-11.772,39.146-21.072
		c11.138-9.278,19.825-20.503,26.017-34.113c6.28-13.348,9.365-28.883,9.365-45.951c0-8.993-1.247-18.052-3.37-26.673
		C238.704,308.779,235.225,300.77,230.279,293.024z M517.735,336.415c-4.354-8.709-10.853-16.433-19.54-22.997
		c-8.709-6.477-18.949-12.079-31.334-16.433c-12.472-4.354-26.411-8.315-41.947-11.772c-10.853-2.144-19.825-4.639-26.98-7.09
		c-7.155-2.516-12.757-5.011-17.089-7.812c-4.332-2.779-7.133-5.908-8.709-9.278c-1.532-3.414-2.429-7.462-2.429-12.1
		c0-4.639,0.897-8.687,2.735-12.735c1.926-4.048,4.726-7.746,8.424-10.569c3.764-3.085,8.424-5.58,14.004-7.418
		c5.514-1.838,12.385-2.801,19.824-2.801c7.746,0,14.595,1.269,20.503,3.37c5.908,2.232,10.853,5.317,14.879,8.993
		c4.07,3.764,6.871,8.118,9.015,13.041c1.904,5.011,3.085,9.956,3.085,15.273h60.502c0-12.166-2.407-23.282-7.418-33.829
		c-4.945-10.525-12.078-19.606-21.4-27.352c-9.365-7.746-20.503-13.654-33.829-18.271c-13.348-4.639-28.533-6.871-45.338-6.871
		c-15.842,0-30.349,2.232-43.106,6.477c-12.757,4.354-23.873,10.24-32.888,17.79c-8.971,7.44-15.842,16.061-20.875,26.017
		c-4.945,9.956-7.068,20.196-7.068,31.334c0,11.203,2.407,21.159,7.068,29.846c4.726,8.709,11.51,16.061,19.912,22.647
		c8.402,6.455,18.643,11.794,30.437,16.411c11.794,4.354,25.12,8.118,39.365,11.225c12.166,2.429,22.013,5.23,29.474,8.052
		c7.462,2.801,13.37,5.886,17.702,8.971c4.07,3.085,6.871,6.871,8.402,10.525c1.554,3.785,2.144,7.812,2.144,12.188
		c0,9.89-3.982,17.702-12.385,23.873c-8.381,6.192-20.481,8.993-36.345,8.993c-6.761,0-13.326-0.678-19.803-2.495
		c-6.499-1.554-12.385-4.07-17.418-7.44c-5.23-3.392-9.3-8.03-12.691-13.654c-3.457-5.624-5.295-12.757-5.58-20.787h-58.708
		c0,11.138,2.516,22.035,7.462,32.581c4.945,10.525,12.1,20.197,21.75,28.818c9.584,8.402,21.378,15.251,35.667,20.503
		c14.31,5.317,30.459,7.812,49.014,7.812c16.433,0,31.334-1.904,44.747-5.886c13.348-4.092,24.77-9.672,34.441-16.849
		c9.584-7.133,16.717-15.842,22.013-25.711c5.208-9.956,7.724-20.809,7.724-32.866C524.584,355.67,522.352,345.124,517.735,336.415z
		"/>
</g>
<g>
</g>
<g>
</g>
<g>
</g>
<g>
</g>
<g>
</g>
<g>
</g>
<g>
</g>
<g>
</g>
<g>
</g>
<g>
</g>
<g>
</g>
<g>
</g>
<g>
</g>
<g>
</g>
<g>
</g>
</svg>
