<?xml version="1.0" encoding="iso-8859-1"?>
<!-- Generator: Adobe Illustrator 18.1.1, SVG Export Plug-In . SVG Version: 6.00 Build 0)  -->
<svg version="1.1" id="Capa_1" xmlns="http://www.w3.org/2000/svg" xmlns:xlink="http://www.w3.org/1999/xlink" x="0px" y="0px"
	 viewBox="0 0 525.153 525.153" style="enable-background:new 0 0 525.153 525.153;" xml:space="preserve">
<g>
	<path d="M415.33,382.377L32.975,0L0,33.26l103.849,103.827v89.56H51.903V122.798H0v259.579h51.903V278.528h51.946v103.849h51.903
		V188.989l25.995,25.951v167.436h103.849c17.352,0,32.691-8.556,42.056-21.816l164.504,164.592l32.997-32.975L415.33,382.377z
		 M285.552,330.474h-51.946v-63.609l51.946,51.903C285.552,318.768,285.552,330.474,285.552,330.474z M415.33,278.528h25.951
		l21.291,84.878l18.949,18.971h37.658L488.282,274.13c18.161-8.052,30.896-26.236,30.896-47.504v-51.924
		c0-28.555-23.369-51.903-51.946-51.903H363.406v141.485l51.924,51.903V278.528z M415.33,174.701h51.903v51.946H415.33V174.701z
		 M337.454,238.31v-63.609c0-28.555-23.369-51.903-51.903-51.903h-63.609L337.454,238.31z"/>
</g>
<g>
</g>
<g>
</g>
<g>
</g>
<g>
</g>
<g>
</g>
<g>
</g>
<g>
</g>
<g>
</g>
<g>
</g>
<g>
</g>
<g>
</g>
<g>
</g>
<g>
</g>
<g>
</g>
<g>
</g>
</svg>
