<?xml version="1.0" encoding="iso-8859-1"?>
<!-- Generator: Adobe Illustrator 18.1.1, SVG Export Plug-In . SVG Version: 6.00 Build 0)  -->
<svg version="1.1" id="Capa_1" xmlns="http://www.w3.org/2000/svg" xmlns:xlink="http://www.w3.org/1999/xlink" x="0px" y="0px"
	 viewBox="0 0 525.153 525.153" style="enable-background:new 0 0 525.153 525.153;" xml:space="preserve">
<g>
	<path d="M155.139,39.912L121.792,0L1.816,100.392l33.654,39.89L155.139,39.912z M523.336,100.654L403.361,0l-33.654,39.912
		l119.975,100.654L523.336,100.654z M262.576,55.819c-129.581,0-234.699,105.074-234.699,234.678S132.71,525.153,262.576,525.153
		c129.581,0,234.699-105.052,234.699-234.656S392.158,55.819,262.576,55.819z M262.576,472.987
		c-100.895,0-182.512-81.596-182.512-182.491c0-100.939,81.596-182.534,182.512-182.534s182.512,81.596,182.512,182.534
		C445.089,391.392,363.471,472.987,262.576,472.987z M184.329,238.354h94.659L184.329,347.87v46.914h156.495V342.64h-94.659
		l94.659-109.516v-46.936H184.329V238.354z"/>
</g>
<g>
</g>
<g>
</g>
<g>
</g>
<g>
</g>
<g>
</g>
<g>
</g>
<g>
</g>
<g>
</g>
<g>
</g>
<g>
</g>
<g>
</g>
<g>
</g>
<g>
</g>
<g>
</g>
<g>
</g>
</svg>
