<?xml version="1.0" encoding="iso-8859-1"?>
<!-- Generator: Adobe Illustrator 18.1.1, SVG Export Plug-In . SVG Version: 6.00 Build 0)  -->
<svg version="1.1" id="Capa_1" xmlns="http://www.w3.org/2000/svg" xmlns:xlink="http://www.w3.org/1999/xlink" x="0px" y="0px"
	 viewBox="0 0 525.153 525.153" style="enable-background:new 0 0 525.153 525.153;" xml:space="preserve">
<g>
	<path d="M453.575,477.407c-33.216,0-66.344-11.247-95.49-31.531c-58.226,40.853-132.71,40.853-190.959,0
		c-29.146,20.306-62.296,31.531-95.49,31.531H23.89v47.745h47.745c32.953,0,65.403-8.337,95.49-23.632
		c60.152,30.787,130.829,30.787,190.959,0c30.087,15.514,62.537,23.632,95.49,23.632h47.745v-47.745H453.575z M70.454,429.684h1.182
		c38.205,0,72.099-21.006,95.49-47.745c23.391,26.739,57.285,47.745,95.468,47.745s72.077-21.006,95.468-47.745
		c23.413,26.739,57.307,47.745,95.49,47.745h1.182l45.119-159.449c1.926-6.192,1.444-12.91-1.4-18.621
		c-2.866-5.777-8.118-10.044-14.332-11.969l-30.546-10V119.363c0-26.236-21.487-47.745-47.745-47.745h-71.618V0H190.998v71.618
		h-71.596c-26.28,0-47.767,21.487-47.767,47.745v110.282l-30.787,10c-6.192,1.926-11.444,6.192-14.332,11.969
		c-2.866,5.711-3.589,12.407-1.422,18.621L70.454,429.684z M119.402,119.363h286.449v94.79l-143.235-47.045l-143.213,47.045
		C119.402,214.153,119.402,119.363,119.402,119.363z"/>
</g>
<g>
</g>
<g>
</g>
<g>
</g>
<g>
</g>
<g>
</g>
<g>
</g>
<g>
</g>
<g>
</g>
<g>
</g>
<g>
</g>
<g>
</g>
<g>
</g>
<g>
</g>
<g>
</g>
<g>
</g>
</svg>
