<?xml version="1.0" encoding="iso-8859-1"?>
<!-- Generator: Adobe Illustrator 18.1.1, SVG Export Plug-In . SVG Version: 6.00 Build 0)  -->
<svg version="1.1" id="Capa_1" xmlns="http://www.w3.org/2000/svg" xmlns:xlink="http://www.w3.org/1999/xlink" x="0px" y="0px"
	 viewBox="0 0 525.174 525.174" style="enable-background:new 0 0 525.174 525.174;" xml:space="preserve">
<g>
	<path d="M477.407,47.745H47.745C21.487,47.745,0,69.233,0,95.468v71.618h47.745V95.468h429.684v334.194H310.321v47.745h167.108
		c26.236,0,47.745-21.487,47.745-47.745V95.468C525.153,69.233,503.665,47.745,477.407,47.745z M0,405.79v71.618h71.618
		C71.618,437.802,39.627,405.79,0,405.79z M0,310.321v47.745c65.863,0,119.363,53.456,119.363,119.363h47.745
		C167.108,385.046,92.383,310.321,0,310.321z M0,214.831v47.745c118.641,0,214.831,96.19,214.831,214.831h47.745
		C262.576,332.29,144.92,214.831,0,214.831z"/>
</g>
<g>
</g>
<g>
</g>
<g>
</g>
<g>
</g>
<g>
</g>
<g>
</g>
<g>
</g>
<g>
</g>
<g>
</g>
<g>
</g>
<g>
</g>
<g>
</g>
<g>
</g>
<g>
</g>
<g>
</g>
</svg>
