<?xml version="1.0" encoding="iso-8859-1"?>
<!-- Generator: Adobe Illustrator 18.1.1, SVG Export Plug-In . SVG Version: 6.00 Build 0)  -->
<svg version="1.1" id="Capa_1" xmlns="http://www.w3.org/2000/svg" xmlns:xlink="http://www.w3.org/1999/xlink" x="0px" y="0px"
	 viewBox="0 0 525.153 525.153" style="enable-background:new 0 0 525.153 525.153;" xml:space="preserve">
<g>
	<path d="M87.569,0H0v87.504C48.38,87.504,87.569,48.445,87.569,0z M320.956,0h-58.379c0,144.964-117.525,262.576-262.576,262.576
		v58.379C177.392,320.956,320.956,177.108,320.956,0z M204.197,0h-58.379c0,80.523-65.294,145.883-145.817,145.883v58.314
		C112.886,204.197,204.197,112.886,204.197,0z M204.197,525.153h58.379c0-145.051,117.525-262.576,262.576-262.576v-58.379
		C348.089,204.197,204.197,348.023,204.197,525.153z M437.583,525.153h87.569v-87.504
		C476.773,437.649,437.583,476.707,437.583,525.153z M320.956,525.153h58.379c0-80.523,65.294-145.883,145.817-145.883v-58.314
		C412.267,320.956,320.956,412.267,320.956,525.153z"/>
</g>
<g>
</g>
<g>
</g>
<g>
</g>
<g>
</g>
<g>
</g>
<g>
</g>
<g>
</g>
<g>
</g>
<g>
</g>
<g>
</g>
<g>
</g>
<g>
</g>
<g>
</g>
<g>
</g>
<g>
</g>
</svg>
