<?xml version="1.0" encoding="iso-8859-1"?>
<!-- Generator: Adobe Illustrator 18.1.1, SVG Export Plug-In . SVG Version: 6.00 Build 0)  -->
<svg version="1.1" id="Capa_1" xmlns="http://www.w3.org/2000/svg" xmlns:xlink="http://www.w3.org/1999/xlink" x="0px" y="0px"
	 viewBox="0 0 525.153 525.153" style="enable-background:new 0 0 525.153 525.153;" xml:space="preserve">
<g>
	<path d="M204.197,0h-58.379c0,10.788-1.138,21.006-3.392,30.962l46.345,46.323C198.639,53.653,204.197,27.417,204.197,0z M0,37.023
		l82.908,82.908C59.145,136.233,30.896,145.883,0,145.883v58.314c47.001,0,90.173-15.995,124.571-42.581l41.684,41.75
		C120.851,240.367,63.04,262.576,0,262.576v58.379c79.035,0,151.375-28.905,207.37-76.497l73.04,72.974
		c-47.242,56.345-76.213,128.684-76.213,207.72h58.379c0-63.04,22.144-120.807,59.145-165.97l41.815,41.662
		c-26.586,34.135-42.581,77.351-42.581,124.308h58.379c0-30.962,9.54-59.211,25.908-82.843l82.908,82.843l37.001-37.001L37.001,0
		L0,37.023z M320.956,0h-58.379c0,43.785-10.788,84.9-29.737,121.354l42.559,42.581C304.041,116.124,320.956,60.086,320.956,0z
		 M494.256,382.792c9.868-2.319,20.109-3.523,30.896-3.523v-58.314c-27.352,0-53.719,5.492-77.569,15.142L494.256,382.792z
		 M361.152,249.754l42.581,42.581c36.454-18.971,77.701-29.759,121.42-29.759v-58.379
		C465.066,204.197,409.072,221.111,361.152,249.754z"/>
</g>
<g>
</g>
<g>
</g>
<g>
</g>
<g>
</g>
<g>
</g>
<g>
</g>
<g>
</g>
<g>
</g>
<g>
</g>
<g>
</g>
<g>
</g>
<g>
</g>
<g>
</g>
<g>
</g>
<g>
</g>
</svg>
